<?xml version="1.0" encoding="UTF-8" standalone="no"?>
<!-- Created with Inkscape (http://www.inkscape.org/) -->

<svg
   width="192"
   height="192"
   viewBox="0 0 48.683327 38.589462"
   version="1.1"
   id="svg1"
   xml:space="preserve"
   xmlns="http://www.w3.org/2000/svg"
   xmlns:svg="http://www.w3.org/2000/svg"><defs
     id="defs1" /><g
     id="layer1"
     transform="translate(-9.2460682,-63.852381)"><path
       style="fill:#ffffff;fill-opacity:1"
       d="m 9.2460681,99.928435 v -2.51354 H 10.26872 c 0.633958,0 1.287623,-0.20843 1.719791,-0.54837 l 0.69714,-0.54837 v -11.75476 -11.75475 h 3.317019 3.317018 l -0.07587,12.63385 -0.07587,12.63386 -0.641989,1.12084 c -1.218957,2.128165 -3.734139,3.235705 -7.361656,3.241645 l -1.9182289,0.003 z m 19.2983869,-5.52052 c -1.629486,-0.43941 -2.78727,-1.31307 -3.495524,-2.6377 -0.554989,-1.03799 -0.594168,-1.47599 -0.672503,-7.51834 l -0.08318,-6.41615 h -1.438173 -1.438173 v -2.51354 -2.51354 h 1.455208 1.455208 v -2.51355 -2.513539 h 3.307292 3.307292 v 2.513539 2.51355 h 1.984374 1.984375 v 2.51354 2.51354 h -1.984375 -1.984374 v 5.29167 c 0,4.93889 0.03528,5.32694 0.529166,5.82083 0.367459,0.36746 0.881945,0.52917 1.683584,0.52917 h 1.154418 l 0.451698,2.27444 c 0.248434,1.25094 0.404475,2.32166 0.346757,2.37938 -0.224326,0.22432 -2.976661,0.63694 -4.135591,0.61999 -0.671361,-0.01 -1.763727,-0.16431 -2.427479,-0.34329 z m 13.862491,-0.1124 c -1.779805,-0.63617 -3.001703,-1.58856 -4.030184,-3.14128 -1.153829,-1.74197 -1.640535,-3.49343 -1.806702,-6.50161 -0.364915,-6.60618 2.134804,-10.8099 7.055596,-11.86522 2.62572,-0.56311 5.63807,0.6759 6.77471,2.78653 0.27809,0.51638 0.59761,0.93887 0.71003,0.93887 0.11243,0 0.20442,-2.44078 0.20442,-5.42396 V 65.66489 h 3.30729 3.30729 v 14.419795 14.41979 h -3.2957 -3.2957 l -0.0777,-1.85504 -0.0777,-1.85505 -0.92755,1.25541 c -1.77579,2.40345 -4.90312,3.29834 -7.84803,2.24572 z m 7.30485,-5.76162 c 0.57439,-0.51892 1.1939,-1.38212 1.37671,-1.91823 0.42871,-1.25726 0.42791,-4.66326 -0.001,-5.92244 -0.37224,-1.0918 -1.81452,-2.49775 -2.82159,-2.7505 -1.8559,-0.46581 -4.03527,0.93251 -4.59487,2.94812 -0.36612,1.31873 -0.37507,4.18056 -0.0171,5.46948 0.31189,1.12301 1.40323,2.53203 2.21573,2.86072 0.30291,0.12254 1.05642,0.23035 1.67447,0.23958 0.92911,0.0139 1.30457,-0.14662 2.16805,-0.92673 z M 14.210331,69.748635 c -0.908504,-0.492954 -1.52468,-1.658422 -1.52468,-2.883867 0,-0.697133 0.226614,-1.190345 0.868984,-1.891292 1.63884,-1.788284 4.493676,-1.376842 5.581299,0.804384 0.42318,0.848686 0.451997,1.147786 0.193659,2.010041 -0.447362,1.493162 -1.628652,2.377424 -3.158513,2.364314 -0.680059,-0.006 -1.562396,-0.18744 -1.960749,-0.40358 z"
       id="path2" /></g></svg>
